<svg width="24" height="25" viewBox="0 0 24 25" fill="none" xmlns="http://www.w3.org/2000/svg">
<path d="M5 10.4231C5 15.2749 9.24448 19.2872 11.1232 20.8255L11.1239 20.8261C11.3933 21.0466 11.5281 21.157 11.7288 21.2135C11.885 21.2575 12.1148 21.2575 12.271 21.2135C12.472 21.1569 12.6071 21.0464 12.877 20.8255C14.7557 19.2872 19 15.2749 19 10.4231C19 8.58695 18.2625 6.82605 16.9497 5.52772C15.637 4.22939 13.8566 3.5 12 3.5C10.1435 3.5 8.36301 4.22938 7.05025 5.52771C5.7375 6.82604 5 8.58698 5 10.4231Z" stroke="white" stroke-width="1.5" stroke-linecap="round" stroke-linejoin="round"/>
</svg>
