<svg width="451" height="288" viewBox="0 0 451 288" fill="none" xmlns="http://www.w3.org/2000/svg">
<path d="M18.64 77.44H36.56V88H4.96V31.84H18.64V77.44ZM49.965 38.72C47.565 38.72 45.5917 38.0267 44.045 36.64C42.5517 35.2 41.805 33.44 41.805 31.36C41.805 29.2267 42.5517 27.4667 44.045 26.08C45.5917 24.64 47.565 23.92 49.965 23.92C52.3117 23.92 54.2317 24.64 55.725 26.08C57.2717 27.4667 58.045 29.2267 58.045 31.36C58.045 33.44 57.2717 35.2 55.725 36.64C54.2317 38.0267 52.3117 38.72 49.965 38.72ZM56.765 43.36V88H43.085V43.36H56.765ZM86.7588 75.2L96.4388 43.36H110.999L95.1588 88H78.2788L62.4388 43.36H77.0788L86.7588 75.2ZM123.637 38.72C121.237 38.72 119.264 38.0267 117.717 36.64C116.224 35.2 115.477 33.44 115.477 31.36C115.477 29.2267 116.224 27.4667 117.717 26.08C119.264 24.64 121.237 23.92 123.637 23.92C125.984 23.92 127.904 24.64 129.397 26.08C130.944 27.4667 131.717 29.2267 131.717 31.36C131.717 33.44 130.944 35.2 129.397 36.64C127.904 38.0267 125.984 38.72 123.637 38.72ZM130.437 43.36V88H116.757V43.36H130.437ZM167.551 42.88C172.777 42.88 176.937 44.5867 180.031 48C183.177 51.36 184.751 56 184.751 61.92V88H171.151V63.76C171.151 60.7733 170.377 58.4533 168.831 56.8C167.284 55.1467 165.204 54.32 162.591 54.32C159.977 54.32 157.897 55.1467 156.351 56.8C154.804 58.4533 154.031 60.7733 154.031 63.76V88H140.351V43.36H154.031V49.28C155.417 47.3067 157.284 45.76 159.631 44.64C161.977 43.4667 164.617 42.88 167.551 42.88ZM211.217 42.72C214.364 42.72 217.11 43.36 219.457 44.64C221.857 45.92 223.697 47.6 224.977 49.68V43.36H238.657V87.92C238.657 92.0267 237.83 95.7333 236.177 99.04C234.577 102.4 232.097 105.067 228.737 107.04C225.43 109.013 221.297 110 216.337 110C209.724 110 204.364 108.427 200.257 105.28C196.15 102.187 193.804 97.9733 193.217 92.64H206.737C207.164 94.3467 208.177 95.68 209.777 96.64C211.377 97.6533 213.35 98.16 215.697 98.16C218.524 98.16 220.764 97.3333 222.417 95.68C224.124 94.08 224.977 91.4933 224.977 87.92V81.6C223.644 83.68 221.804 85.3867 219.457 86.72C217.11 88 214.364 88.64 211.217 88.64C207.537 88.64 204.204 87.7067 201.217 85.84C198.23 83.92 195.857 81.2267 194.097 77.76C192.39 74.24 191.537 70.1867 191.537 65.6C191.537 61.0133 192.39 56.9867 194.097 53.52C195.857 50.0533 198.23 47.3867 201.217 45.52C204.204 43.6533 207.537 42.72 211.217 42.72ZM224.977 65.68C224.977 62.2667 224.017 59.5733 222.097 57.6C220.23 55.6267 217.937 54.64 215.217 54.64C212.497 54.64 210.177 55.6267 208.257 57.6C206.39 59.52 205.457 62.1867 205.457 65.6C205.457 69.0133 206.39 71.7333 208.257 73.76C210.177 75.7333 212.497 76.72 215.217 76.72C217.937 76.72 220.23 75.7333 222.097 73.76C224.017 71.7867 224.977 69.0933 224.977 65.68ZM311.107 43.36L283.107 109.2H268.387L278.627 86.48L260.467 43.36H275.747L286.067 71.28L296.307 43.36H311.107ZM336.374 88.64C332 88.64 328.054 87.7067 324.534 85.84C321.067 83.9733 318.32 81.3067 316.294 77.84C314.32 74.3733 313.334 70.32 313.334 65.68C313.334 61.0933 314.347 57.0667 316.374 53.6C318.4 50.08 321.174 47.3867 324.694 45.52C328.214 43.6533 332.16 42.72 336.534 42.72C340.907 42.72 344.854 43.6533 348.374 45.52C351.894 47.3867 354.667 50.08 356.694 53.6C358.72 57.0667 359.734 61.0933 359.734 65.68C359.734 70.2667 358.694 74.32 356.614 77.84C354.587 81.3067 351.787 83.9733 348.214 85.84C344.694 87.7067 340.747 88.64 336.374 88.64ZM336.374 76.8C338.987 76.8 341.2 75.84 343.014 73.92C344.88 72 345.814 69.2533 345.814 65.68C345.814 62.1067 344.907 59.36 343.094 57.44C341.334 55.52 339.147 54.56 336.534 54.56C333.867 54.56 331.654 55.52 329.894 57.44C328.134 59.3067 327.254 62.0533 327.254 65.68C327.254 69.2533 328.107 72 329.814 73.92C331.574 75.84 333.76 76.8 336.374 76.8ZM411.071 43.36V88H397.391V81.92C396.005 83.8933 394.111 85.4933 391.711 86.72C389.365 87.8933 386.751 88.48 383.871 88.48C380.458 88.48 377.445 87.7333 374.831 86.24C372.218 84.6933 370.191 82.48 368.751 79.6C367.311 76.72 366.591 73.3333 366.591 69.44V43.36H380.191V67.6C380.191 70.5867 380.965 72.9067 382.511 74.56C384.058 76.2133 386.138 77.04 388.751 77.04C391.418 77.04 393.525 76.2133 395.071 74.56C396.618 72.9067 397.391 70.5867 397.391 67.6V43.36H411.071ZM434.578 50.8C436.178 48.3467 438.178 46.4267 440.578 45.04C442.978 43.6 445.644 42.88 448.578 42.88V57.36H444.818C441.404 57.36 438.844 58.1067 437.138 59.6C435.431 61.04 434.578 63.6 434.578 67.28V88H420.898V43.36H434.578V50.8Z" fill="#303030"/>
<path d="M145.511 183.64C145.511 179.269 146.368 175.413 147.996 172.072C149.709 168.73 151.937 166.159 154.765 164.445C157.593 162.646 160.763 161.789 164.276 161.789C167.276 161.789 169.932 162.389 172.16 163.589C174.473 164.788 176.187 166.416 177.387 168.387V162.303H190.411V205.062H177.387V198.978C176.101 200.949 174.302 202.577 172.074 203.776C169.846 204.976 167.19 205.576 164.191 205.576C160.763 205.576 157.593 204.719 154.765 202.919C151.937 201.12 149.624 198.464 147.996 195.207C146.282 191.866 145.511 188.01 145.511 183.64ZM177.387 183.725C177.387 180.469 176.444 177.898 174.645 176.013C172.845 174.128 170.703 173.186 168.047 173.186C165.476 173.186 163.248 174.128 161.449 176.013C159.649 177.813 158.792 180.383 158.792 183.64C158.792 186.896 159.649 189.552 161.449 191.437C163.248 193.322 165.476 194.265 168.047 194.265C170.617 194.265 172.845 193.322 174.645 191.437C176.444 189.552 177.387 186.981 177.387 183.725Z" fill="#303030"/>
<path d="M212.947 148.336V205.061H199.837V148.336H212.947Z" fill="#303030"/>
<path d="M219.802 183.64C219.802 179.269 220.659 175.413 222.287 172.072C224 168.73 226.228 166.159 229.056 164.445C231.884 162.646 235.054 161.789 238.567 161.789C241.567 161.789 244.223 162.389 246.451 163.589C248.764 164.788 250.478 166.416 251.678 168.387V162.303H264.702V205.062H251.678V198.978C250.392 200.949 248.593 202.577 246.365 203.776C244.137 204.976 241.481 205.576 238.482 205.576C235.054 205.576 231.884 204.719 229.056 202.919C226.228 201.12 223.915 198.464 222.287 195.207C220.573 191.866 219.802 188.01 219.802 183.64ZM251.678 183.725C251.678 180.469 250.735 177.898 248.936 176.013C247.136 174.128 244.994 173.186 242.338 173.186C239.681 173.186 237.539 174.128 235.74 176.013C233.94 177.813 233.083 180.383 233.083 183.64C233.083 186.896 233.94 189.552 235.74 191.437C237.539 193.322 239.767 194.265 242.338 194.265C244.908 194.265 247.136 193.322 248.936 191.437C250.735 189.552 251.678 186.981 251.678 183.725Z" fill="#303030"/>
<path d="M300.178 161.875C305.148 161.875 309.175 163.503 312.088 166.759C315.088 170.015 316.63 174.385 316.63 180.127V205.147H303.691V181.84C303.691 179.013 302.92 176.785 301.463 175.157C300.006 173.614 298.036 172.757 295.551 172.757C293.066 172.757 291.095 173.529 289.638 175.157C288.182 176.699 287.41 178.927 287.41 181.84V205.062H274.386V162.303H287.239V167.959C288.524 166.074 290.324 164.617 292.552 163.503C294.78 162.389 297.35 161.875 300.178 161.875Z" fill="#303030"/>
<path d="M323.056 183.725C323.056 179.269 323.913 175.413 325.712 172.072C327.511 168.73 330.082 166.159 333.253 164.445C336.509 162.646 340.193 161.789 344.392 161.789C349.705 161.789 354.16 163.16 357.759 165.988C361.358 168.815 363.758 172.757 364.871 177.898H350.99C349.79 174.642 347.562 173.014 344.221 173.014C341.821 173.014 339.936 173.957 338.48 175.842C337.023 177.641 336.337 180.298 336.337 183.811C336.337 187.324 337.023 189.98 338.48 191.866C339.936 193.665 341.821 194.608 344.221 194.608C347.562 194.608 349.876 192.98 350.99 189.723H364.871C363.758 194.693 361.358 198.635 357.759 201.548C354.16 204.376 349.705 205.833 344.392 205.833C340.193 205.833 336.509 204.976 333.253 203.176C330.082 201.377 327.511 198.806 325.712 195.55C323.913 192.037 323.056 188.095 323.056 183.725Z" fill="#303030"/>
<path d="M412 183.04C412 184.24 411.915 185.525 411.743 186.896H382.181C382.352 189.552 383.209 191.609 384.666 193.066C386.208 194.437 388.008 195.122 390.236 195.122C393.492 195.122 395.72 193.751 397.005 191.009H410.886C410.201 193.837 408.915 196.322 407.03 198.635C405.231 200.863 402.917 202.663 400.09 203.948C397.262 205.233 394.177 205.833 390.664 205.833C386.465 205.833 382.781 204.976 379.525 203.177C376.268 201.377 373.698 198.807 371.898 195.551C370.099 192.209 369.156 188.353 369.156 183.897C369.156 179.441 370.013 175.585 371.813 172.244C373.612 168.902 376.183 166.331 379.439 164.617C382.695 162.818 386.465 161.961 390.664 161.961C394.777 161.961 398.462 162.818 401.632 164.532C404.802 166.245 407.373 168.73 409.087 171.986C411.058 174.986 412 178.67 412 183.04ZM398.633 179.527C398.633 177.299 397.862 175.5 396.319 174.129C394.777 172.758 392.892 172.158 390.578 172.158C388.35 172.158 386.551 172.758 385.009 174.043C383.552 175.328 382.609 177.128 382.267 179.527H398.633Z" fill="#303030"/>
<path d="M127.43 167.787C128.03 168.215 128.544 168.558 128.972 168.901C131.972 170.957 134.457 173.613 136.17 176.87C137.284 179.097 137.884 181.497 138.055 184.067C138.312 187.752 137.713 191.179 136.17 194.521C134.114 198.806 130.943 202.233 126.916 204.804C122.632 207.546 117.919 208.917 112.949 209.774C109.778 210.288 106.608 210.459 103.437 210.459C93.5833 210.459 83.7292 210.459 73.9607 210.459C69.8477 210.459 65.8204 210.202 61.793 209.345C56.9088 208.317 52.3673 206.603 48.4257 203.604C44.3983 200.519 41.485 196.578 39.8569 191.608C39.2571 189.723 39 187.838 39 185.952C39 173.699 39 161.36 39 149.107C39 144.137 40.5424 139.767 43.5415 135.825C46.8833 131.369 51.4248 128.456 56.6517 126.571C60.3363 125.285 64.1923 124.514 68.0483 124.257C70.1905 124.086 72.3327 124 74.5606 124C84.7574 124 94.9543 124 105.066 124C108.322 124 111.578 124.343 114.834 125.028C119.033 125.885 122.974 127.17 126.573 129.398C132.657 133.254 136.77 138.481 138.141 145.593C138.57 147.564 138.484 149.621 138.312 151.592C137.541 158.275 133.942 163.159 128.544 166.844C128.287 167.272 127.944 167.53 127.43 167.787ZM88.185 138.995C83.0437 138.995 77.9024 138.91 72.6754 138.995C69.8477 138.995 66.9343 139.167 64.1066 139.51C60.9361 139.852 58.1084 140.966 55.5378 142.937C52.0246 145.765 50.9963 149.364 52.6244 153.562C53.824 156.647 56.0519 158.532 59.1367 159.561C61.3646 160.332 63.6782 160.503 65.9917 160.503C74.0464 160.503 82.0154 160.417 90.0701 160.332C94.6972 160.332 99.2387 160.503 103.866 160.417C107.379 160.417 110.892 159.989 114.32 159.046C117.062 158.275 119.461 157.076 121.346 154.933C123.488 152.448 123.917 149.192 122.46 146.279C121.003 143.28 118.519 141.48 115.519 140.452C112.435 139.338 109.179 138.91 105.837 138.91C100.01 138.91 94.0974 138.995 88.185 138.995ZM86.9853 195.635V195.55C93.669 195.55 100.438 195.55 107.122 195.55C110.207 195.55 113.292 195.121 116.205 194.093C118.69 193.236 120.746 191.779 122.117 189.466C123.917 186.467 123.831 183.125 121.603 180.64C120.746 179.697 119.632 178.84 118.519 178.241C114.748 176.184 110.635 175.413 106.265 175.413C94.9543 175.413 83.6435 175.413 72.3327 175.413C70.0191 175.413 67.7055 175.499 65.3919 175.67C62.907 175.841 60.5077 176.355 58.1941 177.384C55.1094 178.755 52.8815 180.811 52.196 184.239C51.4248 188.009 53.2242 191.865 56.5661 193.836C58.9653 195.207 61.6217 195.55 64.3637 195.721C65.9917 195.807 67.6198 195.635 69.2479 195.635C75.0747 195.635 81.0728 195.635 86.9853 195.635Z" fill="#009489"/>
<rect x="108" y="234.461" width="235" height="53" rx="26.5" fill="#408E86"/>
<circle cx="144.5" cy="260.961" r="16.5" fill="white"/>
<path d="M140.375 265.989V255.93C140.375 255.149 141.231 254.669 141.898 255.078L150.103 260.107C150.74 260.497 150.74 261.422 150.103 261.812L141.898 266.842C141.231 267.25 140.375 266.771 140.375 265.989Z" fill="#408E86"/>
<path d="M188.234 254.021L184.194 267.961H182.154L178.914 256.741L175.554 267.961L173.534 267.981L169.634 254.021H171.574L174.614 265.841L177.974 254.021H180.014L183.214 265.801L186.274 254.021H188.234ZM189.546 262.441C189.546 261.321 189.772 260.341 190.226 259.501C190.679 258.648 191.299 257.988 192.086 257.521C192.886 257.054 193.772 256.821 194.746 256.821C195.706 256.821 196.539 257.028 197.246 257.441C197.952 257.854 198.479 258.374 198.826 259.001V257.001H200.666V267.961H198.826V265.921C198.466 266.561 197.926 267.094 197.206 267.521C196.499 267.934 195.672 268.141 194.726 268.141C193.752 268.141 192.872 267.901 192.086 267.421C191.299 266.941 190.679 266.268 190.226 265.401C189.772 264.534 189.546 263.548 189.546 262.441ZM198.826 262.461C198.826 261.634 198.659 260.914 198.326 260.301C197.992 259.688 197.539 259.221 196.966 258.901C196.406 258.568 195.786 258.401 195.106 258.401C194.426 258.401 193.806 258.561 193.246 258.881C192.686 259.201 192.239 259.668 191.906 260.281C191.572 260.894 191.406 261.614 191.406 262.441C191.406 263.281 191.572 264.014 191.906 264.641C192.239 265.254 192.686 265.728 193.246 266.061C193.806 266.381 194.426 266.541 195.106 266.541C195.786 266.541 196.406 266.381 196.966 266.061C197.539 265.728 197.992 265.254 198.326 264.641C198.659 264.014 198.826 263.288 198.826 262.461ZM205.961 258.501V264.961C205.961 265.494 206.075 265.874 206.301 266.101C206.528 266.314 206.921 266.421 207.481 266.421H208.821V267.961H207.181C206.168 267.961 205.408 267.728 204.901 267.261C204.395 266.794 204.141 266.028 204.141 264.961V258.501H202.721V257.001H204.141V254.241H205.961V257.001H208.821V258.501H205.961ZM210.346 262.461C210.346 261.328 210.573 260.341 211.026 259.501C211.48 258.648 212.106 257.988 212.906 257.521C213.72 257.054 214.646 256.821 215.686 256.821C217.033 256.821 218.14 257.148 219.006 257.801C219.886 258.454 220.466 259.361 220.746 260.521H218.786C218.6 259.854 218.233 259.328 217.686 258.941C217.153 258.554 216.486 258.361 215.686 258.361C214.646 258.361 213.806 258.721 213.166 259.441C212.526 260.148 212.206 261.154 212.206 262.461C212.206 263.781 212.526 264.801 213.166 265.521C213.806 266.241 214.646 266.601 215.686 266.601C216.486 266.601 217.153 266.414 217.686 266.041C218.22 265.668 218.586 265.134 218.786 264.441H220.746C220.453 265.561 219.866 266.461 218.986 267.141C218.106 267.808 217.006 268.141 215.686 268.141C214.646 268.141 213.72 267.908 212.906 267.441C212.106 266.974 211.48 266.314 211.026 265.461C210.573 264.608 210.346 263.608 210.346 262.461ZM228.615 256.801C229.441 256.801 230.188 256.981 230.855 257.341C231.521 257.688 232.041 258.214 232.415 258.921C232.801 259.628 232.995 260.488 232.995 261.501V267.961H231.195V261.761C231.195 260.668 230.921 259.834 230.375 259.261C229.828 258.674 229.081 258.381 228.135 258.381C227.175 258.381 226.408 258.681 225.835 259.281C225.275 259.881 224.995 260.754 224.995 261.901V267.961H223.175V253.161H224.995V258.561C225.355 258.001 225.848 257.568 226.475 257.261C227.115 256.954 227.828 256.801 228.615 256.801ZM243.52 258.501V264.961C243.52 265.494 243.633 265.874 243.86 266.101C244.086 266.314 244.48 266.421 245.04 266.421H246.38V267.961H244.74C243.726 267.961 242.966 267.728 242.46 267.261C241.953 266.794 241.7 266.028 241.7 264.961V258.501H240.28V257.001H241.7V254.241H243.52V257.001H246.38V258.501H243.52ZM254.025 256.801C254.852 256.801 255.598 256.981 256.265 257.341C256.932 257.688 257.452 258.214 257.825 258.921C258.212 259.628 258.405 260.488 258.405 261.501V267.961H256.605V261.761C256.605 260.668 256.332 259.834 255.785 259.261C255.238 258.674 254.492 258.381 253.545 258.381C252.585 258.381 251.818 258.681 251.245 259.281C250.685 259.881 250.405 260.754 250.405 261.901V267.961H248.585V253.161H250.405V258.561C250.765 258.001 251.258 257.568 251.885 257.261C252.525 256.954 253.238 256.801 254.025 256.801ZM271.378 262.061C271.378 262.408 271.358 262.774 271.318 263.161H262.558C262.625 264.241 262.991 265.088 263.658 265.701C264.338 266.301 265.158 266.601 266.118 266.601C266.905 266.601 267.558 266.421 268.078 266.061C268.611 265.688 268.985 265.194 269.198 264.581H271.158C270.865 265.634 270.278 266.494 269.398 267.161C268.518 267.814 267.425 268.141 266.118 268.141C265.078 268.141 264.145 267.908 263.318 267.441C262.505 266.974 261.865 266.314 261.398 265.461C260.931 264.594 260.698 263.594 260.698 262.461C260.698 261.328 260.925 260.334 261.378 259.481C261.831 258.628 262.465 257.974 263.278 257.521C264.105 257.054 265.051 256.821 266.118 256.821C267.158 256.821 268.078 257.048 268.878 257.501C269.678 257.954 270.291 258.581 270.718 259.381C271.158 260.168 271.378 261.061 271.378 262.061ZM269.498 261.681C269.498 260.988 269.345 260.394 269.038 259.901C268.731 259.394 268.311 259.014 267.778 258.761C267.258 258.494 266.678 258.361 266.038 258.361C265.118 258.361 264.331 258.654 263.678 259.241C263.038 259.828 262.671 260.641 262.578 261.681H269.498ZM280.052 255.221C279.706 255.221 279.412 255.101 279.172 254.861C278.932 254.621 278.812 254.328 278.812 253.981C278.812 253.634 278.932 253.341 279.172 253.101C279.412 252.861 279.706 252.741 280.052 252.741C280.386 252.741 280.666 252.861 280.892 253.101C281.132 253.341 281.252 253.634 281.252 253.981C281.252 254.328 281.132 254.621 280.892 254.861C280.666 255.101 280.386 255.221 280.052 255.221ZM280.932 257.001V267.961H279.112V257.001H280.932ZM289.374 256.801C290.707 256.801 291.787 257.208 292.614 258.021C293.441 258.821 293.854 259.981 293.854 261.501V267.961H292.054V261.761C292.054 260.668 291.781 259.834 291.234 259.261C290.687 258.674 289.941 258.381 288.994 258.381C288.034 258.381 287.267 258.681 286.694 259.281C286.134 259.881 285.854 260.754 285.854 261.901V267.961H284.034V257.001H285.854V258.561C286.214 258.001 286.701 257.568 287.314 257.261C287.941 256.954 288.627 256.801 289.374 256.801ZM299.047 258.501V264.961C299.047 265.494 299.16 265.874 299.387 266.101C299.614 266.314 300.007 266.421 300.567 266.421H301.907V267.961H300.267C299.254 267.961 298.494 267.728 297.987 267.261C297.48 266.794 297.227 266.028 297.227 264.961V258.501H295.807V257.001H297.227V254.241H299.047V257.001H301.907V258.501H299.047ZM305.932 258.781C306.252 258.154 306.706 257.668 307.292 257.321C307.892 256.974 308.619 256.801 309.472 256.801V258.681H308.992C306.952 258.681 305.932 259.788 305.932 262.001V267.961H304.112V257.001H305.932V258.781ZM316.353 268.141C315.327 268.141 314.393 267.908 313.553 267.441C312.727 266.974 312.073 266.314 311.593 265.461C311.127 264.594 310.893 263.594 310.893 262.461C310.893 261.341 311.133 260.354 311.613 259.501C312.107 258.634 312.773 257.974 313.613 257.521C314.453 257.054 315.393 256.821 316.433 256.821C317.473 256.821 318.413 257.054 319.253 257.521C320.093 257.974 320.753 258.628 321.233 259.481C321.727 260.334 321.973 261.328 321.973 262.461C321.973 263.594 321.72 264.594 321.213 265.461C320.72 266.314 320.047 266.974 319.193 267.441C318.34 267.908 317.393 268.141 316.353 268.141ZM316.353 266.541C317.007 266.541 317.62 266.388 318.193 266.081C318.767 265.774 319.227 265.314 319.573 264.701C319.933 264.088 320.113 263.341 320.113 262.461C320.113 261.581 319.94 260.834 319.593 260.221C319.247 259.608 318.793 259.154 318.233 258.861C317.673 258.554 317.067 258.401 316.413 258.401C315.747 258.401 315.133 258.554 314.573 258.861C314.027 259.154 313.587 259.608 313.253 260.221C312.92 260.834 312.753 261.581 312.753 262.461C312.753 263.354 312.913 264.108 313.233 264.721C313.567 265.334 314.007 265.794 314.553 266.101C315.1 266.394 315.7 266.541 316.353 266.541Z" fill="white"/>
</svg>
